<svg xmlns="http://www.w3.org/2000/svg" viewBox="0 0 1400 329.73"><defs><style>.cls-1{fill:#fff;}.cls-2{fill:#00e900;}</style></defs><title>Spurr Logo</title><g id="Layer_2" data-name="Layer 2"><g id="Layer_1-2" data-name="Layer 1"><path class="cls-1" d="M560.88,84.11a5.18,5.18,0,0,1-4.87-3.3c-5.14-13.59-15.12-20.39-30.87-20.39S497.5,67.13,497.5,76.21c0,6.72,4.34,10.67,15,13.83l50.15,14.61c60.42,17.37,82.93,39.09,82.93,80.16,0,54.1-46.6,90.43-116.49,90.43-41.47,0-76.22-13.43-97.94-37.52-12.39-13.85-18.39-28-20.8-50.66a5.25,5.25,0,0,1,5.22-5.8H486a5.27,5.27,0,0,1,5.19,4.5c2.66,16.91,16.53,26.3,39.45,26.3,20.14,0,34.35-8.3,34.35-20.14,0-7.9-5.92-12.64-22.11-17.77L490.78,158c-29.22-9.09-45.41-18.56-56.86-32.38a70.8,70.8,0,0,1-15.4-44.23C418.52,32.78,462.35,0,526.72,0c41.46,0,72.66,12.24,90,35.15,9.74,12.26,13.88,23.86,15.73,43.23a5.25,5.25,0,0,1-5.23,5.73Zm164.27-.28h0A5.24,5.24,0,0,0,733.6,88C746.55,77.71,760,73.45,778.46,73.45c53.31,0,86.87,39.88,86.87,102.67,0,60-32.77,98.33-83.32,98.33-17.48,0-31.78-4.25-44.64-13.61a5.23,5.23,0,0,0-8.27,4.27v59.38a5.24,5.24,0,0,1-5.25,5.24H660.5a5.24,5.24,0,0,1-5.25-5.24V83.83a5.25,5.25,0,0,1,5.25-5.25h59.4A5.25,5.25,0,0,1,725.15,83.83Zm1.18,89.53c0,28.43,11.85,44.62,32.78,44.62,20.14,0,32.38-16.19,32.38-44.23,0-27.64-12.24-43.83-32.38-43.83C738.57,129.92,726.33,146.51,726.33,173.36Zm341.86,96h-59.41a5.25,5.25,0,0,1-5.24-5.25v-5.52a5.24,5.24,0,0,0-8.93-3.72c-14,13.74-29.37,19.62-49.51,19.62-21.72,0-40.68-8.69-53.31-24.48-11.85-14.61-16.59-31.6-16.59-59.24V83.83a5.25,5.25,0,0,1,5.24-5.25H943.8a5.25,5.25,0,0,1,5.25,5.25v95.06c0,21.72,8.68,33.17,24.87,33.17,15.8,0,25.67-11.45,25.67-29.62V83.83a5.25,5.25,0,0,1,5.25-5.25h63.35a5.25,5.25,0,0,1,5.25,5.25V264.07A5.25,5.25,0,0,1,1068.19,269.32Zm92.12-185.49V91a5.24,5.24,0,0,0,9,3.65c14.22-14.53,29.23-21.24,47.46-21.24a62,62,0,0,1,19.08,2.81,5.26,5.26,0,0,1,3.83,5v54.54a5.24,5.24,0,0,1-7,5l-1.23-.42c-33-11.15-67.25,13.54-67.25,48.41v75.27a5.24,5.24,0,0,1-5.24,5.25h-63.36a5.25,5.25,0,0,1-5.24-5.25V83.83a5.25,5.25,0,0,1,5.24-5.25h59.41A5.25,5.25,0,0,1,1160.31,83.83Zm160.32,0V91a5.24,5.24,0,0,0,9,3.65c14.22-14.53,29.23-21.24,47.47-21.24a62,62,0,0,1,19.07,2.81,5.26,5.26,0,0,1,3.83,5v54.54a5.24,5.24,0,0,1-7,5l-1.22-.42c-33-11.15-67.25,13.54-67.25,48.41v75.27a5.25,5.25,0,0,1-5.25,5.25H1256a5.25,5.25,0,0,1-5.24-5.25V83.83a5.25,5.25,0,0,1,5.24-5.25h59.41A5.25,5.25,0,0,1,1320.63,83.83Z"/><path class="cls-2" d="M379.65,87.92c-.32-2-.56-4.12-1.08-6.16-.23-1-.44-2.06-.72-3.08l-.93-3c-.3-1-.67-2-1.07-3l-1.19-3-1.4-2.89-.72-1.44L371.72,64a62.16,62.16,0,0,0-16.93-19,78.25,78.25,0,0,0-21.86-11.33A98,98,0,0,0,309.67,29a124.57,124.57,0,0,0-23,.27,161.9,161.9,0,0,0-43.43,10.83A201.2,201.2,0,0,0,189.62,71.7,235,235,0,0,0,153,48.28a186.43,186.43,0,0,0-46-16.72,135.41,135.41,0,0,0-25-3,99.51,99.51,0,0,0-26,2.61,80.59,80.59,0,0,0-25.13,10.8A66.77,66.77,0,0,0,11,62.38a74.08,74.08,0,0,0-9.74,26.4,95.61,95.61,0,0,0-.62,27c2.06,17.58,8.08,33.87,16.07,48.6a206.54,206.54,0,0,0,29.12,40.09,235.31,235.31,0,0,0,79,56.25,187.06,187.06,0,0,0,46.8,13.57,132.92,132.92,0,0,0,24.61,1.44,102.5,102.5,0,0,0,24.67-3.8,77.45,77.45,0,0,0,22.82-11c.89-.6,1.69-1.32,2.54-2s1.7-1.3,2.47-2.07a63,63,0,0,0,4.56-4.54,59.21,59.21,0,0,0,7.6-10.36,68,68,0,0,0,6.4-15.43A198.08,198.08,0,0,0,297,212.31a204.16,204.16,0,0,0,34.82-25.52,209.86,209.86,0,0,0,15.24-15.6,159.46,159.46,0,0,0,13.52-17.45,132.06,132.06,0,0,0,11-19.63,99.48,99.48,0,0,0,7.07-22.05A76.81,76.81,0,0,0,379.65,87.92ZM258,216.34a55.23,55.23,0,0,1-1.69,7.51l-.54.22A146,146,0,0,1,215.66,234a108.25,108.25,0,0,1-20.68.06,82.22,82.22,0,0,1-20.11-4.29A64.59,64.59,0,0,1,157,220.12a50.21,50.21,0,0,1-13.21-15.06l-.63-1.08-.55-1.13-1.1-2.26-.92-2.33a22,22,0,0,1-.85-2.35l-.74-2.39c-.23-.81-.39-1.63-.59-2.44-.43-1.61-.63-3.28-.9-4.93a67.38,67.38,0,0,1,.58-20,89,89,0,0,1,5.81-19.34,120.44,120.44,0,0,1,9.63-17.85,156.52,156.52,0,0,1,26.66-30.61q4.49-4,9.18-7.64a223.9,223.9,0,0,1,28.35,25.86A215.65,215.65,0,0,1,231.88,134a163.31,163.31,0,0,1,12,18.95A144,144,0,0,1,253,173.32a111,111,0,0,1,5.2,21.44A76.06,76.06,0,0,1,258,216.34ZM251,236a47.86,47.86,0,0,1-14.28,14.75,60.32,60.32,0,0,1-19.24,8.12c-13.82,3.26-28.64,2.28-42.86-.84a168.23,168.23,0,0,1-41.13-15.52c-6.53-3.43-12.84-7.26-19-11.32A211.5,211.5,0,0,1,96.7,218.09c-5.66-4.7-11.22-9.51-16.42-14.7s-10.17-10.54-14.86-16.14a211.27,211.27,0,0,1-13-17.43A163.86,163.86,0,0,1,41.54,151.3c-6.36-12.64-11.17-25.89-13.13-39.07S27.74,86,33.53,75.75a42.89,42.89,0,0,1,5.1-7.16,41.73,41.73,0,0,1,6.55-6.09,56.28,56.28,0,0,1,16.94-8.34c12.59-3.74,26.94-4,41.11-1.95a167,167,0,0,1,42,12.37,216.56,216.56,0,0,1,32.43,17.75q-3.39,3.24-6.62,6.61a176.92,176.92,0,0,0-25.92,35,128.94,128.94,0,0,0-8.92,19.93,97.52,97.52,0,0,0-5,21.29,73.72,73.72,0,0,0,.51,21.94,58,58,0,0,0,7.77,20.53l1.49,2.32,1.65,2.21a54.6,54.6,0,0,0,3.53,4.21c.61.69,1.3,1.29,1.94,1.94s1.28,1.31,2,1.88c1.41,1.15,2.76,2.39,4.27,3.41a73.77,73.77,0,0,0,19.22,9.9,99.83,99.83,0,0,0,21,4.42,131.74,131.74,0,0,0,21.39.29,172.29,172.29,0,0,0,37.57-7A51.34,51.34,0,0,1,251,236ZM359,104.6c0,1.52-.11,3.05-.23,4.59-1,12.34-5.18,25-11.28,36.73a139.5,139.5,0,0,1-10.7,17,162.29,162.29,0,0,1-13.12,15.53,194.64,194.64,0,0,1-31.42,26.32A192.73,192.73,0,0,1,269,218.21c0-.05,0-.11,0-.16a89.27,89.27,0,0,0,.14-24.7,122.16,122.16,0,0,0-5.53-23.67,157.25,157.25,0,0,0-9.42-22.18,207.28,207.28,0,0,0-26.74-39.62c-5.2-6-10.6-11.91-16.31-17.48-3-3-6.22-5.91-9.45-8.73q5.53-3.69,11.33-7c5.87-3.31,11.86-6.39,18-9.1a188.42,188.42,0,0,1,18.73-7.1,156,156,0,0,1,38.59-7.42,112.77,112.77,0,0,1,19.05.49,82.63,82.63,0,0,1,17.86,4.06c11.2,4.15,20.73,11,26.44,20.24a46.38,46.38,0,0,1,6.12,15.49c.28,1.41.51,2.85.72,4.3s.36,2.92.36,4.42l.11,2.25C359.07,103.08,359,103.84,359,104.6Z"/></g></g></svg>