<svg xmlns="http://www.w3.org/2000/svg" width="77" height="77" fill="none" xmlns:v="https://vecta.io/nano"><g clip-path="url(#A)" fill="#fff"><path d="M.3 43.489L23.733 2.933c-1.16.48-2.288 1.016-3.385 1.604L0 39.752l.3 3.736zm5.881-25.941l-2.028 3.507c-1.64 3.216-2.84 6.692-3.521 10.353L13.41 9.294a38.68 38.68 0 0 0-7.229 8.256v-.002zm70.525 16.037L53.331 74.04l3.392-1.615L77 37.332l-.294-3.75v.002zm-5.368 25.056l1.097-1.902a38.22 38.22 0 0 0 3.906-11.018L63.69 67.617a38.67 38.67 0 0 0 7.648-8.978v.002zm-56.414-5.936l.309.527 6.889-11.921.156.796 11.24-19.453-.775.278 6.891-11.927-.605-.016L45.049.565 42.777.24l-6.248 10.813-.641.047-8.93 15.453c-.641.618-1.235 1.285-1.77 1.999l-1.972 3.414a16.59 16.59 0 0 0-.846 2.526l-8.925 15.446.285.569-6.252 10.82 1.418 1.806 6.03-10.433-.002.004zM42.445 11.26l-6.237 10.795-.677.107-12.678 21.942.252.627-6.239 10.798.363.434-5.758 9.966 1.602 1.484 5.649-9.777.381.402 5.791-10.024.336.483 15.3-26.479-.583-.056 5.791-10.024-.541-.129 5.651-9.779-2.09-.641L43 11.355l-.559-.098.002.002zM12.048 46.175l.207.703 20.381-35.273-.712.171 6.8-11.77c-.076 0-.149-.007-.225-.007L36.226.07l-7.292 12.619-.788.3L11.218 42.29l.133.834-7.296 12.628 1.193 2.193 6.8-11.769zm-1.001-9.774l-.071 1.185 12.976-22.458-.993.656L31.728.605l-2.805.594-10.962 18.973a27.64 27.64 0 0 0-2.366 3.031l-1.814 3.14c-.568 1.148-1.048 2.344-1.451 3.576L1.389 48.855l.872 2.749 8.785-15.203zM59.33 6.118l-5.504 9.528-.441-.3-5.478 9.479-.441-.303-16.6 28.73.483.229-5.477 9.481.481.231-5.504 9.528 1.925.927 5.535-9.581.496.205 5.596-9.683.536.136 15.838-27.413-.387-.396 5.593-9.681-.425-.327 5.535-9.581-1.765-1.203.002-.004zM40.825 76.924l7.303-12.639.79-.303 16.871-29.197-.131-.836 7.309-12.65-1.191-2.195-6.809 11.783-.207-.705-20.341 35.202.715-.174-6.811 11.787.174.004 2.326-.076.002-.002zm18.347-20.245c1.013-1.15 1.934-2.382 2.747-3.69l.888-1.539a27.09 27.09 0 0 0 1.807-4.192l11.009-19.053-.87-2.753-8.814 15.252.078-1.199-12.891 22.314 1.002-.669-8.803 15.235 2.807-.598 11.042-19.109v.002zM17.706 70.906l5.504-9.526.441.3 5.478-9.479.441.303L46.171 23.77l-.481-.231 5.478-9.479-.481-.231 5.504-9.526-1.923-.927-5.535 9.581-.496-.205-5.593 9.679-.536-.138-15.852 27.436.387.394-5.591 9.677.425.327-5.536 9.579 1.765 1.201zm16.562 5.858l6.254-10.822.641-.047 9.01-15.593c.697-.69 1.34-1.432 1.907-2.235l1.516-2.622c.407-.883.734-1.81.986-2.769l8.994-15.566-.285-.572 6.257-10.829-1.413-1.81-6.034 10.442-.309-.527-6.902 11.947-.154-.801-11.191 19.367.779-.285L37.415 66l.605.016-6.027 10.431 2.275.322v-.004zm.331-11.017l6.245-10.809.679-.109 12.64-21.876-.252-.629 6.248-10.813-.363-.436 5.763-9.972-1.6-1.486-5.651 9.779-.381-.405-5.796 10.033-.336-.483-15.282 26.448.583.053L31.3 65.074l.541.129-5.653 9.784 2.09.64 5.763-9.972.559.098v-.007z"/></g><defs><clipPath id="A"><path fill="#fff" d="M0 0h77v77H0z"/></clipPath></defs></svg>